<svg width="520" height="80" viewBox="0 0 520 80" fill="none" xmlns="http://www.w3.org/2000/svg">
<path d="M7 78V6H36.75C37.45 6 38.35 6.03333 39.45 6.1C40.55 6.13333 41.5667 6.23333 42.5 6.4C46.6667 7.03333 50.1 8.41666 52.8 10.55C55.5333 12.6833 57.55 15.3833 58.85 18.65C60.1833 21.8833 60.85 25.4833 60.85 29.45C60.85 35.3167 59.3667 40.3667 56.4 44.6C53.4333 48.8 48.8833 51.4 42.75 52.4L37.6 52.85H19.05V78H7ZM48.35 78L34.15 48.7L46.4 46L62 78H48.35ZM19.05 41.6H36.25C36.9167 41.6 37.6667 41.5667 38.5 41.5C39.3333 41.4333 40.1 41.3 40.8 41.1C42.8 40.6 44.3667 39.7167 45.5 38.45C46.6667 37.1833 47.4833 35.75 47.95 34.15C48.45 32.55 48.7 30.9833 48.7 29.45C48.7 27.9167 48.45 26.35 47.95 24.75C47.4833 23.1167 46.6667 21.6667 45.5 20.4C44.3667 19.1333 42.8 18.25 40.8 17.75C40.1 17.55 39.3333 17.4333 38.5 17.4C37.6667 17.3333 36.9167 17.3 36.25 17.3H19.05V41.6ZM74.0156 15.8V4.75H86.0656V15.8H74.0156ZM74.0156 78V24H86.0656V78H74.0156ZM138.393 78V52C138.393 50.3 138.276 48.4167 138.043 46.35C137.81 44.2833 137.26 42.3 136.393 40.4C135.56 38.4667 134.293 36.8833 132.593 35.65C130.926 34.4167 128.66 33.8 125.793 33.8C124.26 33.8 122.743 34.05 121.243 34.55C119.743 35.05 118.376 35.9167 117.143 37.15C115.943 38.35 114.976 40.0167 114.243 42.15C113.51 44.25 113.143 46.95 113.143 50.25L105.993 47.2C105.993 42.6 106.876 38.4333 108.643 34.7C110.443 30.9667 113.076 28 116.543 25.8C120.01 23.5667 124.276 22.45 129.343 22.45C133.343 22.45 136.643 23.1167 139.243 24.45C141.843 25.7833 143.91 27.4833 145.443 29.55C146.976 31.6167 148.11 33.8167 148.843 36.15C149.576 38.4833 150.043 40.7 150.243 42.8C150.476 44.8667 150.593 46.55 150.593 47.85V78H138.393ZM100.943 78V24H111.693V40.75H113.143V78H100.943ZM184.412 79.5C179.445 79.5 175.112 78.25 171.412 75.75C167.712 73.25 164.845 69.85 162.812 65.55C160.778 61.25 159.762 56.4 159.762 51C159.762 45.5333 160.778 40.6667 162.812 36.4C164.878 32.1 167.795 28.7167 171.562 26.25C175.328 23.75 179.762 22.5 184.862 22.5C189.995 22.5 194.295 23.75 197.762 26.25C201.262 28.7167 203.912 32.1 205.712 36.4C207.512 40.7 208.412 45.5667 208.412 51C208.412 56.3667 207.512 61.2167 205.712 65.55C203.912 69.85 201.228 73.25 197.662 75.75C194.095 78.25 189.678 79.5 184.412 79.5ZM186.262 68.7C189.495 68.7 192.095 67.9667 194.062 66.5C196.062 65 197.512 62.9167 198.412 60.25C199.345 57.5833 199.812 54.5 199.812 51C199.812 47.4667 199.345 44.3833 198.412 41.75C197.512 39.0833 196.095 37.0167 194.162 35.55C192.228 34.05 189.728 33.3 186.662 33.3C183.428 33.3 180.762 34.1 178.662 35.7C176.562 37.2667 175.012 39.4 174.012 42.1C173.012 44.7667 172.512 47.7333 172.512 51C172.512 54.3 172.995 57.3 173.962 60C174.962 62.6667 176.478 64.7833 178.512 66.35C180.545 67.9167 183.128 68.7 186.262 68.7ZM199.812 78V40.1H198.312V6H210.462V78H199.812ZM249.03 79.5C243.564 79.5 238.764 78.3167 234.63 75.95C230.497 73.5833 227.264 70.3 224.93 66.1C222.63 61.9 221.48 57.0667 221.48 51.6C221.48 45.7 222.614 40.5833 224.88 36.25C227.147 31.8833 230.297 28.5 234.33 26.1C238.364 23.7 243.03 22.5 248.33 22.5C253.93 22.5 258.68 23.8167 262.58 26.45C266.514 29.05 269.43 32.7333 271.33 37.5C273.23 42.2667 273.947 47.8833 273.48 54.35H261.53V49.95C261.497 44.0833 260.464 39.8 258.43 37.1C256.397 34.4 253.197 33.05 248.83 33.05C243.897 33.05 240.23 34.5833 237.83 37.65C235.43 40.6833 234.23 45.1333 234.23 51C234.23 56.4667 235.43 60.7 237.83 63.7C240.23 66.7 243.73 68.2 248.33 68.2C251.297 68.2 253.847 67.55 255.98 66.25C258.147 64.9167 259.814 63 260.98 60.5L272.88 64.1C270.814 68.9667 267.614 72.75 263.28 75.45C258.98 78.15 254.23 79.5 249.03 79.5ZM230.43 54.35V45.25H267.58V54.35H230.43ZM314.237 79.5C307.07 79.5 300.987 77.9167 295.987 74.75C290.987 71.5833 287.17 67.1833 284.537 61.55C281.937 55.9167 280.637 49.4 280.637 42C280.637 34.6 281.937 28.0833 284.537 22.45C287.17 16.8167 290.987 12.4167 295.987 9.24999C300.987 6.08333 307.07 4.5 314.237 4.5C322.57 4.5 329.42 6.61666 334.787 10.85C340.187 15.0833 343.903 20.7833 345.937 27.95L336.887 30.35C335.42 24.9833 332.803 20.75 329.037 17.65C325.27 14.55 320.337 13 314.237 13C308.87 13 304.403 14.2167 300.837 16.65C297.27 19.0833 294.587 22.4833 292.787 26.85C290.987 31.1833 290.07 36.2333 290.037 42C290.003 47.7333 290.887 52.7833 292.687 57.15C294.487 61.4833 297.187 64.8833 300.787 67.35C304.387 69.7833 308.87 71 314.237 71C320.337 71 325.27 69.45 329.037 66.35C332.803 63.2167 335.42 58.9833 336.887 53.65L345.937 56.05C343.903 63.1833 340.187 68.8833 334.787 73.15C329.42 77.3833 322.57 79.5 314.237 79.5ZM395.352 78V50.95C395.352 48.3833 395.119 45.9167 394.652 43.55C394.219 41.1833 393.436 39.0667 392.302 37.2C391.202 35.3 389.702 33.8 387.802 32.7C385.936 31.6 383.569 31.05 380.702 31.05C378.469 31.05 376.436 31.4333 374.602 32.2C372.802 32.9333 371.252 34.0667 369.952 35.6C368.652 37.1333 367.636 39.0667 366.902 41.4C366.202 43.7 365.852 46.4167 365.852 49.55L360.002 47.75C360.002 42.5167 360.936 38.0333 362.802 34.3C364.702 30.5333 367.352 27.65 370.752 25.65C374.186 23.6167 378.219 22.6 382.852 22.6C386.352 22.6 389.336 23.15 391.802 24.25C394.269 25.35 396.319 26.8167 397.952 28.65C399.586 30.45 400.869 32.4833 401.802 34.75C402.736 36.9833 403.386 39.2667 403.752 41.6C404.152 43.9 404.352 46.0833 404.352 48.15V78H395.352ZM356.852 78V6H364.852V45.75H365.852V78H356.852ZM418.352 14.45V5.25H427.252V14.45H418.352ZM418.352 78V24H427.252V78H418.352ZM443.254 78V4.5H452.154V78H443.254ZM490.556 79.5C485.256 79.5 480.623 78.3333 476.656 76C472.723 73.6333 469.656 70.35 467.456 66.15C465.256 61.9167 464.156 56.9833 464.156 51.35C464.156 45.45 465.24 40.35 467.406 36.05C469.573 31.7167 472.59 28.3833 476.456 26.05C480.356 23.6833 484.923 22.5 490.156 22.5C495.59 22.5 500.206 23.75 504.006 26.25C507.84 28.75 510.706 32.3167 512.606 36.95C514.54 41.5833 515.373 47.1 515.106 53.5H506.106V50.3C506.006 43.6667 504.656 38.7167 502.056 35.45C499.456 32.15 495.59 30.5 490.456 30.5C484.956 30.5 480.773 32.2667 477.906 35.8C475.04 39.3333 473.606 44.4 473.606 51C473.606 57.3667 475.04 62.3 477.906 65.8C480.773 69.3 484.856 71.05 490.156 71.05C493.723 71.05 496.823 70.2333 499.456 68.6C502.09 66.9667 504.156 64.6167 505.656 61.55L514.206 64.5C512.106 69.2667 508.94 72.9667 504.706 75.6C500.506 78.2 495.79 79.5 490.556 79.5ZM470.606 53.5V46.35H510.506V53.5H470.606Z" fill="#D9D9D9"/>
</svg>
