<svg width="709" height="110" viewBox="0 0 709 110" fill="none" xmlns="http://www.w3.org/2000/svg">
<path d="M33.9709 0C43.4773 9.51014e-05 52.0689 6.32443 58.2348 16.5137C52.2324 26.4332 48.5297 40.0163 48.5296 55C48.5296 69.9832 52.2325 83.5666 58.2348 93.4866C52.0689 103.676 43.4774 110 33.9709 110C15.2095 110 0 85.3754 0 55C0.000114122 24.6245 15.2095 0 33.9709 0ZM82.5005 0C92.0069 9.51014e-05 100.598 6.32443 106.765 16.5137C100.762 26.4332 97.0596 40.0163 97.0596 55C97.0596 69.9832 100.762 83.5666 106.765 93.4866C100.598 103.676 92.0071 110 82.5005 110C72.9936 110 64.4007 103.677 58.2348 93.4866C64.2373 83.5666 67.9408 69.9842 67.9408 55C67.9408 40.016 64.2374 26.4332 58.2348 16.5137C64.4007 6.32396 72.9938 0 82.5005 0ZM131.03 0C149.791 0.000190203 165 24.6246 165 55C165 85.3754 149.791 110 131.03 110C121.523 110 112.93 103.677 106.765 93.4866C112.767 83.5666 116.471 69.9842 116.471 55C116.471 40.016 112.767 26.4332 106.765 16.5137C112.93 6.32396 121.523 0 131.03 0Z" fill="#D9D9D9"/>
<path d="M196 93V21H225.75C226.45 21 227.35 21.0333 228.45 21.1C229.55 21.1333 230.567 21.2333 231.5 21.4C235.667 22.0333 239.1 23.4167 241.8 25.55C244.533 27.6833 246.55 30.3833 247.85 33.65C249.183 36.8833 249.85 40.4833 249.85 44.45C249.85 50.3167 248.367 55.3667 245.4 59.6C242.433 63.8 237.883 66.4 231.75 67.4L226.6 67.85H208.05V93H196ZM237.35 93L223.15 63.7L235.4 61L251 93H237.35ZM208.05 56.6H225.25C225.917 56.6 226.667 56.5667 227.5 56.5C228.333 56.4333 229.1 56.3 229.8 56.1C231.8 55.6 233.367 54.7167 234.5 53.45C235.667 52.1833 236.483 50.75 236.95 49.15C237.45 47.55 237.7 45.9833 237.7 44.45C237.7 42.9167 237.45 41.35 236.95 39.75C236.483 38.1167 235.667 36.6667 234.5 35.4C233.367 34.1333 231.8 33.25 229.8 32.75C229.1 32.55 228.333 32.4333 227.5 32.4C226.667 32.3333 225.917 32.3 225.25 32.3H208.05V56.6ZM263.016 30.8V19.75H275.066V30.8H263.016ZM263.016 93V39H275.066V93H263.016ZM327.393 93V67C327.393 65.3 327.276 63.4167 327.043 61.35C326.81 59.2833 326.26 57.3 325.393 55.4C324.56 53.4667 323.293 51.8833 321.593 50.65C319.926 49.4167 317.66 48.8 314.793 48.8C313.26 48.8 311.743 49.05 310.243 49.55C308.743 50.05 307.376 50.9167 306.143 52.15C304.943 53.35 303.976 55.0167 303.243 57.15C302.51 59.25 302.143 61.95 302.143 65.25L294.993 62.2C294.993 57.6 295.876 53.4333 297.643 49.7C299.443 45.9667 302.076 43 305.543 40.8C309.01 38.5667 313.276 37.45 318.343 37.45C322.343 37.45 325.643 38.1167 328.243 39.45C330.843 40.7833 332.91 42.4833 334.443 44.55C335.976 46.6167 337.11 48.8167 337.843 51.15C338.576 53.4833 339.043 55.7 339.243 57.8C339.476 59.8667 339.593 61.55 339.593 62.85V93H327.393ZM289.943 93V39H300.693V55.75H302.143V93H289.943ZM373.412 94.5C368.445 94.5 364.112 93.25 360.412 90.75C356.712 88.25 353.845 84.85 351.812 80.55C349.778 76.25 348.762 71.4 348.762 66C348.762 60.5333 349.778 55.6667 351.812 51.4C353.878 47.1 356.795 43.7167 360.562 41.25C364.328 38.75 368.762 37.5 373.862 37.5C378.995 37.5 383.295 38.75 386.762 41.25C390.262 43.7167 392.912 47.1 394.712 51.4C396.512 55.7 397.412 60.5667 397.412 66C397.412 71.3667 396.512 76.2167 394.712 80.55C392.912 84.85 390.228 88.25 386.662 90.75C383.095 93.25 378.678 94.5 373.412 94.5ZM375.262 83.7C378.495 83.7 381.095 82.9667 383.062 81.5C385.062 80 386.512 77.9167 387.412 75.25C388.345 72.5833 388.812 69.5 388.812 66C388.812 62.4667 388.345 59.3833 387.412 56.75C386.512 54.0833 385.095 52.0167 383.162 50.55C381.228 49.05 378.728 48.3 375.662 48.3C372.428 48.3 369.762 49.1 367.662 50.7C365.562 52.2667 364.012 54.4 363.012 57.1C362.012 59.7667 361.512 62.7333 361.512 66C361.512 69.3 361.995 72.3 362.962 75C363.962 77.6667 365.478 79.7833 367.512 81.35C369.545 82.9167 372.128 83.7 375.262 83.7ZM388.812 93V55.1H387.312V21H399.462V93H388.812ZM438.03 94.5C432.564 94.5 427.764 93.3167 423.63 90.95C419.497 88.5833 416.264 85.3 413.93 81.1C411.63 76.9 410.48 72.0667 410.48 66.6C410.48 60.7 411.614 55.5833 413.88 51.25C416.147 46.8833 419.297 43.5 423.33 41.1C427.364 38.7 432.03 37.5 437.33 37.5C442.93 37.5 447.68 38.8167 451.58 41.45C455.514 44.05 458.43 47.7333 460.33 52.5C462.23 57.2667 462.947 62.8833 462.48 69.35H450.53V64.95C450.497 59.0833 449.464 54.8 447.43 52.1C445.397 49.4 442.197 48.05 437.83 48.05C432.897 48.05 429.23 49.5833 426.83 52.65C424.43 55.6833 423.23 60.1333 423.23 66C423.23 71.4667 424.43 75.7 426.83 78.7C429.23 81.7 432.73 83.2 437.33 83.2C440.297 83.2 442.847 82.55 444.98 81.25C447.147 79.9167 448.814 78 449.98 75.5L461.88 79.1C459.814 83.9667 456.614 87.75 452.28 90.45C447.98 93.15 443.23 94.5 438.03 94.5ZM419.43 69.35V60.25H456.58V69.35H419.43ZM503.237 94.5C496.07 94.5 489.987 92.9167 484.987 89.75C479.987 86.5833 476.17 82.1833 473.537 76.55C470.937 70.9167 469.637 64.4 469.637 57C469.637 49.6 470.937 43.0833 473.537 37.45C476.17 31.8167 479.987 27.4167 484.987 24.25C489.987 21.0833 496.07 19.5 503.237 19.5C511.57 19.5 518.42 21.6167 523.787 25.85C529.187 30.0833 532.903 35.7833 534.937 42.95L525.887 45.35C524.42 39.9833 521.803 35.75 518.037 32.65C514.27 29.55 509.337 28 503.237 28C497.87 28 493.403 29.2167 489.837 31.65C486.27 34.0833 483.587 37.4833 481.787 41.85C479.987 46.1833 479.07 51.2333 479.037 57C479.003 62.7333 479.887 67.7833 481.687 72.15C483.487 76.4833 486.187 79.8833 489.787 82.35C493.387 84.7833 497.87 86 503.237 86C509.337 86 514.27 84.45 518.037 81.35C521.803 78.2167 524.42 73.9833 525.887 68.65L534.937 71.05C532.903 78.1833 529.187 83.8833 523.787 88.15C518.42 92.3833 511.57 94.5 503.237 94.5ZM584.352 93V65.95C584.352 63.3833 584.119 60.9167 583.652 58.55C583.219 56.1833 582.436 54.0667 581.302 52.2C580.202 50.3 578.702 48.8 576.802 47.7C574.936 46.6 572.569 46.05 569.702 46.05C567.469 46.05 565.436 46.4333 563.602 47.2C561.802 47.9333 560.252 49.0667 558.952 50.6C557.652 52.1333 556.636 54.0667 555.902 56.4C555.202 58.7 554.852 61.4167 554.852 64.55L549.002 62.75C549.002 57.5167 549.936 53.0333 551.802 49.3C553.702 45.5333 556.352 42.65 559.752 40.65C563.186 38.6167 567.219 37.6 571.852 37.6C575.352 37.6 578.336 38.15 580.802 39.25C583.269 40.35 585.319 41.8167 586.952 43.65C588.586 45.45 589.869 47.4833 590.802 49.75C591.736 51.9833 592.386 54.2667 592.752 56.6C593.152 58.9 593.352 61.0833 593.352 63.15V93H584.352ZM545.852 93V21H553.852V60.75H554.852V93H545.852ZM607.352 29.45V20.25H616.252V29.45H607.352ZM607.352 93V39H616.252V93H607.352ZM632.254 93V19.5H641.154V93H632.254ZM679.556 94.5C674.256 94.5 669.623 93.3333 665.656 91C661.723 88.6333 658.656 85.35 656.456 81.15C654.256 76.9167 653.156 71.9833 653.156 66.35C653.156 60.45 654.24 55.35 656.406 51.05C658.573 46.7167 661.59 43.3833 665.456 41.05C669.356 38.6833 673.923 37.5 679.156 37.5C684.59 37.5 689.206 38.75 693.006 41.25C696.84 43.75 699.706 47.3167 701.606 51.95C703.54 56.5833 704.373 62.1 704.106 68.5H695.106V65.3C695.006 58.6667 693.656 53.7167 691.056 50.45C688.456 47.15 684.59 45.5 679.456 45.5C673.956 45.5 669.773 47.2667 666.906 50.8C664.04 54.3333 662.606 59.4 662.606 66C662.606 72.3667 664.04 77.3 666.906 80.8C669.773 84.3 673.856 86.05 679.156 86.05C682.723 86.05 685.823 85.2333 688.456 83.6C691.09 81.9667 693.156 79.6167 694.656 76.55L703.206 79.5C701.106 84.2667 697.94 87.9667 693.706 90.6C689.506 93.2 684.79 94.5 679.556 94.5ZM659.606 68.5V61.35H699.506V68.5H659.606Z" fill="#D9D9D9"/>
</svg>
